<svg width="200" height="202" viewBox="0 0 200 202" fill="none" xmlns="http://www.w3.org/2000/svg">
<path d="M174.776 185.84C173.667 185.835 172.599 185.619 171.573 185.182C170.552 184.751 169.646 184.136 168.865 183.341L108.698 122.615C108.307 122.221 107.958 121.794 107.651 121.331C107.349 120.869 107.089 120.379 106.875 119.864C106.667 119.354 106.505 118.822 106.401 118.275C106.292 117.728 106.24 117.181 106.24 116.623C106.24 116.066 106.292 115.513 106.401 114.966C106.505 114.425 106.667 113.893 106.875 113.378C107.089 112.867 107.349 112.378 107.651 111.915C107.958 111.452 108.307 111.021 108.698 110.632C109.083 110.237 109.51 109.885 109.969 109.574C110.427 109.269 110.911 109.006 111.417 108.791C111.927 108.58 112.453 108.417 112.99 108.312C113.531 108.201 114.078 108.149 114.63 108.149C115.182 108.149 115.724 108.201 116.266 108.312C116.807 108.417 117.333 108.58 117.839 108.791C118.349 109.006 118.833 109.269 119.292 109.574C119.75 109.885 120.172 110.237 120.563 110.632L180.688 171.4C181.271 171.989 181.755 172.657 182.146 173.394C182.531 174.13 182.807 174.909 182.969 175.729C183.125 176.545 183.167 177.371 183.083 178.202C183.005 179.033 182.807 179.833 182.49 180.606C182.172 181.379 181.755 182.089 181.229 182.731C180.708 183.378 180.104 183.936 179.417 184.404C178.729 184.867 177.99 185.225 177.203 185.467C176.412 185.714 175.604 185.835 174.776 185.84Z" fill="white"/>
<path d="M13.3333 0H186.667C187.542 0 188.411 0.084167 189.266 0.25776C190.125 0.431354 190.958 0.689115 191.771 1.02578C192.578 1.36245 193.344 1.77802 194.073 2.26724C194.802 2.76172 195.474 3.31932 196.094 3.94531C196.714 4.5713 197.266 5.2499 197.755 5.98635C198.24 6.72281 198.651 7.49609 198.984 8.31146C199.318 9.13208 199.573 9.97375 199.745 10.8417C199.917 11.7044 200 12.5829 200 13.4667V175.067C200 175.95 199.917 176.829 199.745 177.692C199.573 178.56 199.318 179.401 198.984 180.222C198.651 181.037 198.24 181.811 197.755 182.547C197.266 183.283 196.714 183.962 196.094 184.588C195.474 185.214 194.802 185.772 194.073 186.266C193.344 186.755 192.578 187.171 191.771 187.508C190.958 187.844 190.125 188.102 189.266 188.276C188.411 188.449 187.542 188.533 186.667 188.533H13.3333C12.4583 188.533 11.5885 188.449 10.7344 188.276C9.875 188.102 9.04167 187.844 8.22917 187.508C7.42187 187.171 6.65625 186.755 5.92708 186.266C5.19792 185.772 4.52604 185.214 3.90625 184.588C3.28646 183.962 2.73437 183.283 2.24479 182.547C1.76042 181.811 1.34896 181.037 1.01563 180.222C0.682292 179.401 0.427083 178.56 0.255208 177.692C0.0833337 176.829 0 175.95 0 175.067V13.4667C0 12.5829 0.0833337 11.7044 0.255208 10.8417C0.427083 9.97375 0.682292 9.13208 1.01563 8.31146C1.34896 7.49609 1.76042 6.72281 2.24479 5.98635C2.73437 5.2499 3.28646 4.5713 3.90625 3.94531C4.52604 3.31932 5.19792 2.76172 5.92708 2.26724C6.65625 1.77802 7.42187 1.36245 8.22917 1.02578C9.04167 0.689115 9.875 0.431354 10.7344 0.25776C11.5885 0.084167 12.4583 0 13.3333 0Z" fill="#AA2B24"/>
<path d="M0 175.067C0 175.95 0.0833337 176.829 0.255208 177.692C0.427083 178.56 0.682292 179.401 1.01563 180.222C1.34896 181.037 1.76042 181.811 2.24479 182.547C2.73437 183.283 3.28646 183.962 3.90625 184.588C4.52604 185.214 5.19792 185.772 5.92708 186.266C6.65625 186.755 7.42187 187.171 8.22917 187.508C9.04167 187.844 9.875 188.102 10.7344 188.276C11.5885 188.449 12.4583 188.533 13.3333 188.533H186.667C187.542 188.533 188.411 188.449 189.266 188.276C190.125 188.102 190.958 187.844 191.771 187.508C192.578 187.171 193.344 186.755 194.073 186.266C194.802 185.772 195.474 185.214 196.094 184.588C196.714 183.962 197.266 183.283 197.755 182.547C198.24 181.811 198.651 181.037 198.984 180.222C199.318 179.401 199.573 178.56 199.745 177.692C199.917 176.829 200 175.95 200 175.067V40.4H0V175.067Z" fill="#CCCCCC"/>
<path d="M186.667 40.4H0V168.333H176.667C177.323 168.333 177.974 168.27 178.62 168.139C179.26 168.012 179.885 167.818 180.495 167.565C181.099 167.313 181.677 166.997 182.224 166.629C182.771 166.261 183.271 165.845 183.74 165.377C184.203 164.904 184.615 164.399 184.979 163.846C185.344 163.294 185.656 162.71 185.906 162.1C186.156 161.484 186.344 160.853 186.474 160.206C186.604 159.554 186.667 158.896 186.667 158.233V40.4Z" fill="#F2F2F2"/>
<path d="M26.6667 158.233H173.333C173.771 158.233 174.203 158.275 174.635 158.365C175.063 158.449 175.479 158.575 175.885 158.744C176.286 158.917 176.672 159.122 177.036 159.37C177.401 159.612 177.74 159.89 178.047 160.206C178.359 160.516 178.635 160.858 178.875 161.226C179.12 161.595 179.323 161.984 179.495 162.389C179.661 162.799 179.786 163.22 179.87 163.652C179.958 164.088 180 164.525 180 164.967C180 165.409 179.958 165.845 179.87 166.282C179.786 166.713 179.661 167.134 179.495 167.544C179.323 167.949 179.12 168.339 178.875 168.707C178.635 169.075 178.359 169.417 178.047 169.727C177.74 170.043 177.401 170.322 177.036 170.564C176.672 170.811 176.286 171.016 175.885 171.19C175.479 171.358 175.063 171.484 174.635 171.568C174.203 171.658 173.771 171.7 173.333 171.7H26.6667C26.2292 171.7 25.7969 171.658 25.3646 171.568C24.9375 171.484 24.5208 171.358 24.1146 171.19C23.7135 171.016 23.3281 170.811 22.9635 170.564C22.599 170.322 22.2604 170.043 21.9531 169.727C21.6406 169.417 21.3646 169.075 21.125 168.707C20.8802 168.339 20.6771 167.949 20.5052 167.544C20.3385 167.134 20.2135 166.713 20.1302 166.282C20.0417 165.845 20 165.409 20 164.967C20 164.525 20.0417 164.088 20.1302 163.652C20.2135 163.22 20.3385 162.799 20.5052 162.389C20.6771 161.984 20.8802 161.595 21.125 161.226C21.3646 160.858 21.6406 160.516 21.9531 160.206C22.2604 159.89 22.599 159.612 22.9635 159.37C23.3281 159.122 23.7135 158.917 24.1146 158.744C24.5208 158.575 24.9375 158.449 25.3646 158.365C25.7969 158.275 26.2292 158.233 26.6667 158.233Z" fill="#AA2B24"/>
<path d="M169.401 158.233H26.6667C26.2292 158.233 25.7969 158.275 25.3646 158.365C24.9375 158.449 24.5208 158.575 24.1146 158.744C23.7135 158.917 23.3281 159.122 22.9635 159.37C22.599 159.612 22.2604 159.89 21.9531 160.206C21.6406 160.516 21.3646 160.858 21.125 161.226C20.8802 161.595 20.6771 161.984 20.5052 162.389C20.3385 162.799 20.2135 163.22 20.1302 163.652C20.0417 164.088 20 164.525 20 164.967H160C161.031 164.961 162.036 164.804 163.021 164.488C164.005 164.167 164.917 163.709 165.755 163.104C166.599 162.505 167.328 161.784 167.953 160.953C168.573 160.122 169.057 159.217 169.401 158.233Z" fill="#D24034"/>
<path d="M0 13.4667V30.3H176.667C177.323 30.3 177.974 30.2369 178.62 30.1054C179.26 29.9791 179.885 29.7845 180.495 29.532C181.099 29.2795 181.677 28.9639 182.224 28.5956C182.771 28.2274 183.271 27.8118 183.74 27.3436C184.203 26.8702 184.615 26.3652 184.979 25.8129C185.344 25.2605 185.656 24.6766 185.906 24.0664C186.156 23.4509 186.344 22.8197 186.474 22.1727C186.604 21.5204 186.667 20.8628 186.667 20.2V0H13.3333C12.4583 0 11.5885 0.084167 10.7344 0.25776C9.875 0.431354 9.04167 0.689115 8.22917 1.02578C7.42187 1.36245 6.65625 1.77802 5.92708 2.26724C5.19792 2.76172 4.52604 3.31932 3.90625 3.94531C3.28646 4.5713 2.73437 5.2499 2.24479 5.98635C1.76042 6.72281 1.34896 7.49609 1.01563 8.31146C0.682292 9.13208 0.427083 9.97375 0.255208 10.8417C0.0833337 11.7044 0 12.5829 0 13.4667Z" fill="#D24034"/>
<path d="M180 117.833V77.4333C180 76.7705 179.938 76.113 179.807 75.4607C179.682 74.8137 179.49 74.1824 179.24 73.5669C178.99 72.9567 178.677 72.3728 178.313 71.8205C177.948 71.2681 177.536 70.7579 177.073 70.2897C176.604 69.8215 176.104 69.4059 175.557 69.0377C175.01 68.6695 174.432 68.3539 173.828 68.1014C173.219 67.8489 172.594 67.6542 171.953 67.528C171.307 67.3965 170.656 67.3333 170 67.3333H30C29.3437 67.3333 28.6927 67.3965 28.0469 67.528C27.4063 67.6542 26.7813 67.8489 26.1719 68.1014C25.5677 68.3539 24.9896 68.6695 24.4427 69.0377C23.8958 69.4059 23.3906 69.8215 22.9271 70.2897C22.4635 70.7579 22.0521 71.2681 21.6875 71.8205C21.3229 72.3728 21.0104 72.9567 20.7604 73.5669C20.5104 74.1824 20.3177 74.8137 20.1927 75.4607C20.0625 76.113 20 76.7705 20 77.4333V117.833C20 118.496 20.0625 119.154 20.1927 119.806C20.3177 120.453 20.5104 121.084 20.7604 121.7C21.0104 122.31 21.3229 122.894 21.6875 123.446C22.0521 123.999 22.4635 124.504 22.9271 124.977C23.3906 125.445 23.8958 125.861 24.4427 126.229C24.9896 126.597 25.5677 126.913 26.1719 127.165C26.7813 127.418 27.4063 127.612 28.0469 127.739C28.6927 127.87 29.3437 127.933 30 127.933H93.3333L100 148.133L110 127.933H170C170.656 127.933 171.307 127.87 171.953 127.739C172.594 127.612 173.219 127.418 173.828 127.165C174.432 126.913 175.01 126.597 175.557 126.229C176.104 125.861 176.604 125.445 177.073 124.977C177.536 124.504 177.948 123.999 178.313 123.446C178.677 122.894 178.99 122.31 179.24 121.7C179.49 121.084 179.682 120.453 179.807 119.806C179.938 119.154 180 118.496 180 117.833Z" fill="#AA2B24"/>
<path d="M30 67.3333C29.3437 67.3333 28.6927 67.3965 28.0469 67.528C27.4063 67.6542 26.7813 67.8489 26.1719 68.1014C25.5677 68.3539 24.9896 68.6695 24.4427 69.0377C23.8958 69.4059 23.3906 69.8215 22.9271 70.2897C22.4635 70.7579 22.0521 71.2681 21.6875 71.8205C21.3229 72.3728 21.0104 72.9567 20.7604 73.5669C20.5104 74.1824 20.3177 74.8137 20.1927 75.4607C20.0625 76.113 20 76.7705 20 77.4333V114.467H156.667C157.323 114.467 157.974 114.404 158.62 114.272C159.26 114.146 159.885 113.951 160.495 113.699C161.099 113.446 161.677 113.131 162.224 112.762C162.771 112.394 163.271 111.979 163.74 111.51C164.203 111.037 164.615 110.532 164.979 109.98C165.344 109.427 165.656 108.843 165.906 108.233C166.156 107.618 166.349 106.986 166.474 106.339C166.604 105.687 166.667 105.029 166.667 104.367V67.3333H30Z" fill="#D24034"/>
<path d="M160 20.2C160 20.6419 159.958 21.0785 159.87 21.5151C159.786 21.9465 159.661 22.3673 159.495 22.7776C159.323 23.1827 159.12 23.5719 158.875 23.9402C158.635 24.3084 158.359 24.6503 158.047 24.9607C157.74 25.2763 157.401 25.5551 157.036 25.7971C156.672 26.0443 156.286 26.2495 155.885 26.4231C155.479 26.5914 155.062 26.7177 154.635 26.8018C154.203 26.8913 153.771 26.9333 153.333 26.9333C152.896 26.9333 152.464 26.8913 152.031 26.8018C151.604 26.7177 151.187 26.5914 150.781 26.4231C150.38 26.2495 149.995 26.0443 149.63 25.7971C149.266 25.5551 148.927 25.2763 148.62 24.9607C148.307 24.6503 148.031 24.3084 147.792 23.9402C147.547 23.5719 147.344 23.1827 147.172 22.7776C147.005 22.3673 146.88 21.9465 146.797 21.5151C146.708 21.0785 146.667 20.6419 146.667 20.2C146.667 19.7581 146.708 19.3215 146.797 18.8849C146.88 18.4535 147.005 18.0327 147.172 17.6224C147.344 17.2174 147.547 16.8281 147.792 16.4599C148.031 16.0916 148.307 15.7497 148.62 15.4393C148.927 15.1237 149.266 14.8449 149.63 14.6029C149.995 14.3557 150.38 14.1505 150.781 13.9769C151.187 13.8086 151.604 13.6824 152.031 13.5982C152.464 13.5088 152.896 13.4667 153.333 13.4667C153.771 13.4667 154.203 13.5088 154.635 13.5982C155.062 13.6824 155.479 13.8086 155.885 13.9769C156.286 14.1505 156.672 14.3557 157.036 14.6029C157.401 14.8449 157.74 15.1237 158.047 15.4393C158.359 15.7497 158.635 16.0916 158.875 16.4599C159.12 16.8281 159.323 17.2174 159.495 17.6224C159.661 18.0327 159.786 18.4535 159.87 18.8849C159.958 19.3215 160 19.7581 160 20.2Z" fill="white"/>
<path d="M186.667 20.2C186.667 20.6419 186.625 21.0785 186.536 21.5151C186.453 21.9465 186.328 22.3673 186.161 22.7776C185.99 23.1827 185.786 23.5719 185.542 23.9402C185.302 24.3084 185.026 24.6503 184.714 24.9607C184.406 25.2763 184.068 25.5551 183.703 25.7971C183.339 26.0443 182.953 26.2495 182.552 26.4231C182.146 26.5914 181.729 26.7177 181.302 26.8018C180.87 26.8913 180.438 26.9333 180 26.9333C179.563 26.9333 179.13 26.8913 178.698 26.8018C178.271 26.7177 177.854 26.5914 177.448 26.4231C177.047 26.2495 176.661 26.0443 176.297 25.7971C175.932 25.5551 175.594 25.2763 175.286 24.9607C174.974 24.6503 174.698 24.3084 174.458 23.9402C174.214 23.5719 174.01 23.1827 173.839 22.7776C173.672 22.3673 173.547 21.9465 173.464 21.5151C173.375 21.0785 173.333 20.6419 173.333 20.2C173.333 19.7581 173.375 19.3215 173.464 18.8849C173.547 18.4535 173.672 18.0327 173.839 17.6224C174.01 17.2174 174.214 16.8281 174.458 16.4599C174.698 16.0916 174.974 15.7497 175.286 15.4393C175.594 15.1237 175.932 14.8449 176.297 14.6029C176.661 14.3557 177.047 14.1505 177.448 13.9769C177.854 13.8086 178.271 13.6824 178.698 13.5982C179.13 13.5088 179.563 13.4667 180 13.4667C180.438 13.4667 180.87 13.5088 181.302 13.5982C181.729 13.6824 182.146 13.8086 182.552 13.9769C182.953 14.1505 183.339 14.3557 183.703 14.6029C184.068 14.8449 184.406 15.1237 184.714 15.4393C185.026 15.7497 185.302 16.0916 185.542 16.4599C185.786 16.8281 185.99 17.2174 186.161 17.6224C186.328 18.0327 186.453 18.4535 186.536 18.8849C186.625 19.3215 186.667 19.7581 186.667 20.2Z" fill="white"/>
<path d="M133.333 40.4V47.1333C133.333 47.5752 133.292 48.0118 133.203 48.4484C133.12 48.8798 132.995 49.3006 132.828 49.7109C132.656 50.116 132.453 50.5053 132.208 50.8735C131.969 51.2417 131.693 51.5836 131.38 51.894C131.073 52.2096 130.734 52.4884 130.37 52.7304C130.005 52.9777 129.62 53.1828 129.219 53.3564C128.813 53.5247 128.396 53.651 127.969 53.7352C127.536 53.8246 127.104 53.8667 126.667 53.8667H0V40.4H133.333Z" fill="#D24034"/>
<path d="M30 40.4H36.6667V53.8667H30V40.4Z" fill="#AA2B24"/>
<path d="M63.3334 40.4H70V53.8667H63.3334V40.4Z" fill="#AA2B24"/>
<path d="M96.6666 40.4H103.333V53.8667H96.6666V40.4Z" fill="#AA2B24"/>
<path d="M136.667 158.233H143.333V171.7H136.667V158.233Z" fill="#80201B"/>
<path d="M136.667 202L156.667 168.333L176.667 202L156.667 191.9L136.667 202Z" fill="#F2F2F2"/>
<path d="M70 117.833H63.3333V111.1H50C49.3958 111.1 48.8281 110.947 48.3073 110.637C47.7812 110.327 47.375 109.906 47.0781 109.369C46.7865 108.833 46.6458 108.259 46.6615 107.649C46.6771 107.034 46.8437 106.471 47.1667 105.95L63.8333 79.0167C64.0156 78.6906 64.2448 78.4065 64.5208 78.1593C64.7969 77.912 65.1094 77.7174 65.4479 77.5754C65.7917 77.4333 66.1458 77.3492 66.5104 77.3229C66.8802 77.3018 67.2448 77.3334 67.599 77.4333C67.9583 77.5385 68.2865 77.7016 68.5937 77.9173C68.8958 78.133 69.1562 78.396 69.375 78.7011C69.5937 79.0062 69.7552 79.3376 69.8594 79.6953C69.9687 80.0583 70.0156 80.4265 70 80.8V104.367H76.6667V111.1H70V117.833ZM56 104.367H63.3333V92.5518L56 104.367Z" fill="white"/>
<path d="M133.333 117.833H126.667V111.1H113.333C112.729 111.1 112.161 110.947 111.641 110.637C111.115 110.327 110.708 109.906 110.411 109.369C110.12 108.833 109.979 108.259 109.995 107.649C110.01 107.034 110.177 106.471 110.5 105.95L127.167 79.0167C127.349 78.6906 127.578 78.4065 127.854 78.1593C128.13 77.912 128.443 77.7174 128.781 77.5754C129.125 77.4333 129.479 77.3492 129.844 77.3229C130.214 77.3018 130.578 77.3334 130.932 77.4333C131.292 77.5385 131.62 77.7016 131.927 77.9173C132.229 78.133 132.49 78.396 132.708 78.7011C132.927 79.0062 133.089 79.3376 133.193 79.6953C133.302 80.0583 133.349 80.4265 133.333 80.8V104.367H140V111.1H133.333V117.833ZM119.333 104.367H126.667V92.5518L119.333 104.367Z" fill="white"/>
<path d="M93.3333 117.833C92.4583 117.833 91.5885 117.749 90.7344 117.576C89.875 117.402 89.0417 117.144 88.2292 116.808C87.4219 116.471 86.651 116.055 85.9271 115.566C85.1979 115.072 84.526 114.514 83.9063 113.888C83.2865 113.262 82.7344 112.583 82.2448 111.847C81.7604 111.111 81.349 110.337 81.0156 109.522C80.6823 108.701 80.4271 107.86 80.2552 106.992C80.0833 106.129 80 105.25 80 104.367V90.9C80 90.0162 80.0833 89.1377 80.2552 88.275C80.4271 87.4071 80.6823 86.5654 81.0156 85.7448C81.349 84.9294 81.7604 84.1509 82.2448 83.4197C82.7344 82.6832 83.2865 82.0046 83.9063 81.3786C84.526 80.7526 85.1979 80.195 85.9271 79.7006C86.651 79.2113 87.4219 78.7958 88.2292 78.4591C89.0417 78.1224 89.875 77.8647 90.7344 77.6911C91.5885 77.5175 92.4583 77.4333 93.3333 77.4333C94.2083 77.4333 95.0781 77.5175 95.9323 77.6911C96.7917 77.8647 97.625 78.1224 98.4375 78.4591C99.2448 78.7958 100.01 79.2113 100.74 79.7006C101.469 80.195 102.141 80.7526 102.76 81.3786C103.38 82.0046 103.932 82.6832 104.422 83.4197C104.906 84.1509 105.318 84.9294 105.651 85.7448C105.984 86.5654 106.24 87.4071 106.411 88.275C106.583 89.1377 106.667 90.0162 106.667 90.9V104.367C106.667 105.25 106.583 106.129 106.411 106.992C106.24 107.86 105.984 108.701 105.651 109.522C105.318 110.337 104.906 111.111 104.422 111.847C103.932 112.583 103.38 113.262 102.76 113.888C102.141 114.514 101.469 115.072 100.74 115.566C100.01 116.055 99.2448 116.471 98.4375 116.808C97.625 117.144 96.7917 117.402 95.9323 117.576C95.0781 117.749 94.2083 117.833 93.3333 117.833ZM93.3333 84.1667C92.8958 84.1667 92.4635 84.2087 92.0313 84.2982C91.6042 84.3823 91.1875 84.5086 90.7813 84.6769C90.3802 84.8505 89.9948 85.0557 89.6302 85.3029C89.2656 85.5449 88.9271 85.8237 88.6198 86.1393C88.3073 86.4497 88.0313 86.7916 87.7917 87.1598C87.5469 87.5281 87.3437 87.9173 87.1719 88.3224C87.0052 88.7327 86.8802 89.1535 86.7969 89.5849C86.7083 90.0215 86.6667 90.4581 86.6667 90.9V104.367C86.6667 104.809 86.7083 105.245 86.7969 105.682C86.8802 106.113 87.0052 106.534 87.1719 106.944C87.3437 107.349 87.5469 107.739 87.7917 108.107C88.0313 108.475 88.3073 108.817 88.6198 109.127C88.9271 109.443 89.2656 109.722 89.6302 109.964C89.9948 110.211 90.3802 110.416 90.7813 110.59C91.1875 110.758 91.6042 110.884 92.0313 110.968C92.4635 111.058 92.8958 111.1 93.3333 111.1C93.7708 111.1 94.2031 111.058 94.6354 110.968C95.0625 110.884 95.4792 110.758 95.8854 110.59C96.2865 110.416 96.6719 110.211 97.0365 109.964C97.401 109.722 97.7396 109.443 98.0469 109.127C98.3594 108.817 98.6354 108.475 98.875 108.107C99.1198 107.739 99.3229 107.349 99.4948 106.944C99.6615 106.534 99.7865 106.113 99.8698 105.682C99.9583 105.245 100 104.809 100 104.367V90.9C100 90.4581 99.9583 90.0215 99.8698 89.5849C99.7865 89.1535 99.6615 88.7327 99.4948 88.3224C99.3229 87.9173 99.1198 87.5281 98.875 87.1598C98.6354 86.7916 98.3594 86.4497 98.0469 86.1393C97.7396 85.8237 97.401 85.5449 97.0365 85.3029C96.6719 85.0557 96.2865 84.8505 95.8854 84.6769C95.4792 84.5086 95.0625 84.3823 94.6354 84.2982C94.2031 84.2087 93.7708 84.1667 93.3333 84.1667Z" fill="white"/>
<path d="M146.667 77.4333H153.333V107.733H146.667V77.4333Z" fill="white"/>
<path d="M146.667 111.1H153.333V117.833H146.667V111.1Z" fill="white"/>
</svg>
